<svg xmlns="http://www.w3.org/2000/svg" viewBox="0 0 300 200" width="300" height="200">
    <defs>
        <linearGradient id="leafGradientFull" x1="0%" y1="0%" x2="100%" y2="100%">
            <stop offset="0%" stop-color="#FFD700"/>
            <stop offset="50%" stop-color="#FFA500"/>
            <stop offset="100%" stop-color="#FF8C00"/>
        </linearGradient>
        <linearGradient id="leafHighlightFull" x1="0%" y1="0%" x2="100%" y2="100%">
            <stop offset="0%" stop-color="#FFFF99"/>
            <stop offset="50%" stop-color="#FFD700"/>
            <stop offset="100%" stop-color="#FFA500"/>
        </linearGradient>
        <linearGradient id="textGradient" x1="0%" y1="0%" x2="100%" y2="100%">
            <stop offset="0%" stop-color="#2C3E50"/>
            <stop offset="50%" stop-color="#34495E"/>
            <stop offset="100%" stop-color="#2C3E50"/>
        </linearGradient>
        <filter id="leafGlowFull">
            <feGaussianBlur stdDeviation="1.5" result="coloredBlur"/>
            <feMerge>
                <feMergeNode in="coloredBlur"/>
                <feMergeNode in="SourceGraphic"/>
            </feMerge>
        </filter>
    </defs>
    
    <!-- Transparent background -->
    <!-- <rect width="300" height="200" fill="#000000"/> -->
    
    <!-- Icon Section (scaled and positioned) -->
    <g transform="translate(150, 65) scale(0.85)">
        <!-- Center leaf (vertical) -->
        <ellipse cx="0" cy="-10" rx="12" ry="35" fill="url(#leafGradientFull)" stroke="#FF8C00" stroke-width="1"/>
        <path d="M0 -45 Q0 -10 0 25" stroke="#FF8C00" stroke-width="2" fill="none"/>
        <ellipse cx="0" cy="-15" rx="8" ry="25" fill="url(#leafHighlightFull)"/>
        
        <!-- Left leaf (angled) -->
        <ellipse cx="-30" cy="20" rx="10" ry="28" transform="rotate(-35 -30 20)" fill="url(#leafGradientFull)" stroke="#FF8C00" stroke-width="1"/>
        <path d="M-40 -5 Q-30 20 -20 45" stroke="#FF8C00" stroke-width="2" fill="none"/>
        <ellipse cx="-30" cy="20" rx="6" ry="20" transform="rotate(-35 -30 20)" fill="url(#leafHighlightFull)"/>
        
        <!-- Right leaf (angled) -->
        <ellipse cx="30" cy="20" rx="10" ry="28" transform="rotate(35 30 20)" fill="url(#leafGradientFull)" stroke="#FF8C00" stroke-width="1"/>
        <path d="M40 -5 Q30 20 20 45" stroke="#FF8C00" stroke-width="2" fill="none"/>
        <ellipse cx="30" cy="20" rx="6" ry="20" transform="rotate(35 30 20)" fill="url(#leafHighlightFull)"/>
        
        <!-- Connecting stem -->
        <ellipse cx="0" cy="50" rx="3" ry="8" fill="url(#leafGradientFull)" stroke="#FF8C00" stroke-width="1"/>
    </g>
    
    <!-- EATRITE Text -->
    <text x="150" y="155" text-anchor="middle" fill="url(#textGradient)" 
          font-family="Inter, Arial, sans-serif" font-size="36" font-weight="900" 
          letter-spacing="2px" stroke="#2C3E50" stroke-width="0.5">EATRITE</text>
</svg>